<mxfile host="65bd71144e">
    <diagram id="8MS1eecIBBOjP_tPHI2X" name="Page-1">
        <mxGraphModel dx="632" dy="497" grid="1" gridSize="10" guides="1" tooltips="1" connect="1" arrows="1" fold="1" page="1" pageScale="1" pageWidth="1169" pageHeight="1654" math="0" shadow="0">
            <root>
                <mxCell id="0"/>
                <mxCell id="1" parent="0"/>
                <mxCell id="49" value="Scanning" style="swimlane;fontStyle=0;childLayout=stackLayout;horizontal=1;startSize=26;fillColor=none;horizontalStack=0;resizeParent=1;resizeParentMax=0;resizeLast=0;collapsible=1;marginBottom=0;html=1;rounded=1;shadow=0;labelBackgroundColor=none;comic=0;fillStyle=solid;strokeColor=default;strokeWidth=1;fontFamily=Verdana;fontSize=12;fontColor=default;" parent="1" vertex="1">
                    <mxGeometry x="90" y="120" width="210" height="156" as="geometry"/>
                </mxCell>
                <mxCell id="50" value="Serial1Initialise()" style="text;strokeColor=none;fillColor=none;align=left;verticalAlign=top;spacingLeft=4;spacingRight=4;overflow=hidden;rotatable=0;points=[[0,0.5],[1,0.5]];portConstraint=eastwest;whiteSpace=wrap;html=1;rounded=1;shadow=0;labelBackgroundColor=none;comic=0;fillStyle=solid;strokeWidth=1;fontFamily=Verdana;fontSize=12;fontColor=default;startSize=26;" parent="49" vertex="1">
                    <mxGeometry y="26" width="210" height="26" as="geometry"/>
                </mxCell>
                <mxCell id="51" value="validateRFID()" style="text;strokeColor=none;fillColor=none;align=left;verticalAlign=top;spacingLeft=4;spacingRight=4;overflow=hidden;rotatable=0;points=[[0,0.5],[1,0.5]];portConstraint=eastwest;whiteSpace=wrap;html=1;rounded=1;shadow=0;labelBackgroundColor=none;comic=0;fillStyle=solid;strokeWidth=1;fontFamily=Verdana;fontSize=12;fontColor=default;startSize=26;" parent="49" vertex="1">
                    <mxGeometry y="52" width="210" height="26" as="geometry"/>
                </mxCell>
                <mxCell id="52" value="findDogName()" style="text;strokeColor=none;fillColor=none;align=left;verticalAlign=top;spacingLeft=4;spacingRight=4;overflow=hidden;rotatable=0;points=[[0,0.5],[1,0.5]];portConstraint=eastwest;whiteSpace=wrap;html=1;rounded=1;shadow=0;labelBackgroundColor=none;comic=0;fillStyle=solid;strokeWidth=1;fontFamily=Verdana;fontSize=12;fontColor=default;startSize=26;" parent="49" vertex="1">
                    <mxGeometry y="78" width="210" height="26" as="geometry"/>
                </mxCell>
                <mxCell id="121" value="&lt;div style=&quot;background-color: rgb(30, 30, 30); line-height: 19px;&quot;&gt;&lt;font color=&quot;#ffffff&quot; style=&quot;font-size: 12px;&quot;&gt;isTagInTagsList()&lt;/font&gt;&lt;/div&gt;" style="text;strokeColor=none;fillColor=none;align=left;verticalAlign=top;spacingLeft=4;spacingRight=4;overflow=hidden;rotatable=0;points=[[0,0.5],[1,0.5]];portConstraint=eastwest;whiteSpace=wrap;html=1;rounded=1;shadow=0;labelBackgroundColor=none;comic=0;fillStyle=solid;strokeWidth=1;fontFamily=Verdana;fontSize=12;fontColor=default;startSize=26;" parent="49" vertex="1">
                    <mxGeometry y="104" width="210" height="26" as="geometry"/>
                </mxCell>
                <mxCell id="53" value="&lt;div style=&quot;background-color: rgb(30, 30, 30); line-height: 19px;&quot;&gt;&lt;font style=&quot;font-size: 12px;&quot;&gt;isTagActive()&lt;/font&gt;&lt;/div&gt;" style="text;strokeColor=none;fillColor=none;align=left;verticalAlign=top;spacingLeft=4;spacingRight=4;overflow=hidden;rotatable=0;points=[[0,0.5],[1,0.5]];portConstraint=eastwest;whiteSpace=wrap;html=1;rounded=1;shadow=0;labelBackgroundColor=none;comic=0;fillStyle=solid;strokeWidth=1;fontFamily=Verdana;fontSize=12;fontColor=#FFFFFF;startSize=26;" parent="49" vertex="1">
                    <mxGeometry y="130" width="210" height="26" as="geometry"/>
                </mxCell>
                <mxCell id="54" value="Data" style="swimlane;fontStyle=0;childLayout=stackLayout;horizontal=1;startSize=26;fillColor=none;horizontalStack=0;resizeParent=1;resizeParentMax=0;resizeLast=0;collapsible=1;marginBottom=0;html=1;rounded=1;shadow=0;labelBackgroundColor=none;comic=0;fillStyle=solid;strokeColor=default;strokeWidth=1;fontFamily=Verdana;fontSize=12;fontColor=default;" parent="1" vertex="1">
                    <mxGeometry x="90" y="302" width="210" height="182" as="geometry"/>
                </mxCell>
                <mxCell id="55" value="&lt;div style=&quot;color: rgb(212, 212, 212); background-color: rgb(30, 30, 30); font-family: Consolas, &amp;quot;Courier New&amp;quot;, monospace; font-size: 14px; line-height: 19px;&quot;&gt;read_tag_status_list()&lt;/div&gt;" style="text;strokeColor=none;fillColor=none;align=left;verticalAlign=top;spacingLeft=4;spacingRight=4;overflow=hidden;rotatable=0;points=[[0,0.5],[1,0.5]];portConstraint=eastwest;whiteSpace=wrap;html=1;rounded=1;shadow=0;labelBackgroundColor=none;comic=0;fillStyle=solid;strokeWidth=1;fontFamily=Verdana;fontSize=12;fontColor=default;startSize=26;" parent="54" vertex="1">
                    <mxGeometry y="26" width="210" height="26" as="geometry"/>
                </mxCell>
                <mxCell id="56" value="&lt;div style=&quot;color: rgb(212, 212, 212); background-color: rgb(30, 30, 30); font-family: Consolas, &amp;quot;Courier New&amp;quot;, monospace; font-size: 14px; line-height: 19px;&quot;&gt;read_tag_group_list()&lt;/div&gt;" style="text;strokeColor=none;fillColor=none;align=left;verticalAlign=top;spacingLeft=4;spacingRight=4;overflow=hidden;rotatable=0;points=[[0,0.5],[1,0.5]];portConstraint=eastwest;whiteSpace=wrap;html=1;rounded=1;shadow=0;labelBackgroundColor=none;comic=0;fillStyle=solid;strokeWidth=1;fontFamily=Verdana;fontSize=12;fontColor=default;startSize=26;" parent="54" vertex="1">
                    <mxGeometry y="52" width="210" height="26" as="geometry"/>
                </mxCell>
                <mxCell id="57" value="&lt;div style=&quot;color: rgb(212, 212, 212); background-color: rgb(30, 30, 30); font-family: Consolas, &amp;quot;Courier New&amp;quot;, monospace; font-size: 14px; line-height: 19px;&quot;&gt;read_tag_location_list()&lt;/div&gt;" style="text;strokeColor=none;fillColor=none;align=left;verticalAlign=top;spacingLeft=4;spacingRight=4;overflow=hidden;rotatable=0;points=[[0,0.5],[1,0.5]];portConstraint=eastwest;whiteSpace=wrap;html=1;rounded=1;shadow=0;labelBackgroundColor=none;comic=0;fillStyle=solid;strokeWidth=1;fontFamily=Verdana;fontSize=12;fontColor=default;startSize=26;" parent="54" vertex="1">
                    <mxGeometry y="78" width="210" height="26" as="geometry"/>
                </mxCell>
                <mxCell id="118" value="&lt;div style=&quot;color: rgb(212, 212, 212); background-color: rgb(30, 30, 30); font-family: Consolas, &amp;quot;Courier New&amp;quot;, monospace; font-size: 14px; line-height: 19px;&quot;&gt;&lt;div style=&quot;line-height: 19px;&quot;&gt;read_tags_file()&lt;/div&gt;&lt;/div&gt;" style="text;strokeColor=none;fillColor=none;align=left;verticalAlign=top;spacingLeft=4;spacingRight=4;overflow=hidden;rotatable=0;points=[[0,0.5],[1,0.5]];portConstraint=eastwest;whiteSpace=wrap;html=1;rounded=1;shadow=0;labelBackgroundColor=none;comic=0;fillStyle=solid;strokeWidth=1;fontFamily=Verdana;fontSize=12;fontColor=default;startSize=26;" parent="54" vertex="1">
                    <mxGeometry y="104" width="210" height="26" as="geometry"/>
                </mxCell>
                <mxCell id="119" value="&lt;div style=&quot;color: rgb(212, 212, 212); background-color: rgb(30, 30, 30); font-family: Consolas, &amp;quot;Courier New&amp;quot;, monospace; font-size: 14px; line-height: 19px;&quot;&gt;&lt;div style=&quot;line-height: 19px;&quot;&gt;read_bucket_file()&lt;/div&gt;&lt;/div&gt;" style="text;strokeColor=none;fillColor=none;align=left;verticalAlign=top;spacingLeft=4;spacingRight=4;overflow=hidden;rotatable=0;points=[[0,0.5],[1,0.5]];portConstraint=eastwest;whiteSpace=wrap;html=1;rounded=1;shadow=0;labelBackgroundColor=none;comic=0;fillStyle=solid;strokeWidth=1;fontFamily=Verdana;fontSize=12;fontColor=default;startSize=26;" parent="54" vertex="1">
                    <mxGeometry y="130" width="210" height="26" as="geometry"/>
                </mxCell>
                <mxCell id="120" value="&lt;div style=&quot;color: rgb(212, 212, 212); background-color: rgb(30, 30, 30); font-family: Consolas, &amp;quot;Courier New&amp;quot;, monospace; font-size: 14px; line-height: 19px;&quot;&gt;&lt;div style=&quot;line-height: 19px;&quot;&gt;&lt;div style=&quot;line-height: 19px;&quot;&gt;read_active_tags_file()&lt;/div&gt;&lt;/div&gt;&lt;/div&gt;" style="text;strokeColor=none;fillColor=none;align=left;verticalAlign=top;spacingLeft=4;spacingRight=4;overflow=hidden;rotatable=0;points=[[0,0.5],[1,0.5]];portConstraint=eastwest;whiteSpace=wrap;html=1;rounded=1;shadow=0;labelBackgroundColor=none;comic=0;fillStyle=solid;strokeWidth=1;fontFamily=Verdana;fontSize=12;fontColor=default;startSize=26;" parent="54" vertex="1">
                    <mxGeometry y="156" width="210" height="26" as="geometry"/>
                </mxCell>
                <mxCell id="58" value="main.cpp&lt;br&gt;loop()&lt;br&gt;Serial1 Read - receive &lt;br&gt;string from RFID board" style="html=1;dashed=0;whitespace=wrap;shape=mxgraph.dfd.start;rounded=1;shadow=0;labelBackgroundColor=none;comic=0;fillStyle=solid;strokeColor=default;strokeWidth=1;fontFamily=Verdana;fontSize=12;fontColor=default;startSize=26;fillColor=none;" parent="1" vertex="1">
                    <mxGeometry x="475" y="2040" width="185" height="70" as="geometry"/>
                </mxCell>
                <mxCell id="60" value="&lt;h1 style=&quot;&quot;&gt;&lt;ul style=&quot;font-size: 12px;&quot;&gt;&lt;li&gt;Contain data in arrays&lt;/li&gt;&lt;li&gt;Read data as requires&lt;/li&gt;&lt;li&gt;Add data&lt;/li&gt;&lt;li&gt;Create lists&lt;/li&gt;&lt;li&gt;Summarise data&lt;/li&gt;&lt;/ul&gt;&lt;/h1&gt;" style="text;html=1;strokeColor=none;fillColor=none;spacing=5;spacingTop=-20;whiteSpace=wrap;overflow=hidden;rounded=0;shadow=0;labelBackgroundColor=none;comic=0;fillStyle=solid;strokeWidth=1;fontFamily=Verdana;fontSize=12;fontColor=default;startSize=26;" parent="1" vertex="1">
                    <mxGeometry x="350" y="302" width="330" height="120" as="geometry"/>
                </mxCell>
                <mxCell id="61" value="File Handling" style="swimlane;fontStyle=0;childLayout=stackLayout;horizontal=1;startSize=30;horizontalStack=0;resizeParent=1;resizeParentMax=0;resizeLast=0;collapsible=1;marginBottom=0;whiteSpace=wrap;html=1;rounded=1;shadow=0;labelBackgroundColor=none;comic=0;fillStyle=solid;strokeColor=default;strokeWidth=1;fontFamily=Verdana;fontSize=12;fontColor=default;fillColor=none;" parent="1" vertex="1">
                    <mxGeometry x="90" y="540" width="210" height="330" as="geometry"/>
                </mxCell>
                <mxCell id="62" value="initFileSystem()" style="text;strokeColor=none;fillColor=none;align=left;verticalAlign=middle;spacingLeft=4;spacingRight=4;overflow=hidden;points=[[0,0.5],[1,0.5]];portConstraint=eastwest;rotatable=0;whiteSpace=wrap;html=1;rounded=1;shadow=0;labelBackgroundColor=none;comic=0;fillStyle=solid;strokeWidth=1;fontFamily=Verdana;fontSize=12;fontColor=default;startSize=26;" parent="61" vertex="1">
                    <mxGeometry y="30" width="210" height="30" as="geometry"/>
                </mxCell>
                <mxCell id="63" value="SD_init()" style="text;strokeColor=none;fillColor=none;align=left;verticalAlign=middle;spacingLeft=4;spacingRight=4;overflow=hidden;points=[[0,0.5],[1,0.5]];portConstraint=eastwest;rotatable=0;whiteSpace=wrap;html=1;rounded=1;shadow=0;labelBackgroundColor=none;comic=0;fillStyle=solid;strokeWidth=1;fontFamily=Verdana;fontSize=12;fontColor=default;startSize=26;" parent="61" vertex="1">
                    <mxGeometry y="60" width="210" height="30" as="geometry"/>
                </mxCell>
                <mxCell id="64" value="&lt;div style=&quot;color: rgb(212, 212, 212); background-color: rgb(30, 30, 30); font-family: Consolas, &amp;quot;Courier New&amp;quot;, monospace; font-size: 14px; line-height: 19px;&quot;&gt;copyFileFromLittleFStoSD()&lt;/div&gt;" style="text;strokeColor=none;fillColor=none;align=left;verticalAlign=middle;spacingLeft=4;spacingRight=4;overflow=hidden;points=[[0,0.5],[1,0.5]];portConstraint=eastwest;rotatable=0;whiteSpace=wrap;html=1;rounded=1;shadow=0;labelBackgroundColor=none;comic=0;fillStyle=solid;strokeWidth=1;fontFamily=Verdana;fontSize=12;fontColor=default;startSize=26;" parent="61" vertex="1">
                    <mxGeometry y="90" width="210" height="30" as="geometry"/>
                </mxCell>
                <mxCell id="65" value="&lt;div style=&quot;color: rgb(212, 212, 212); background-color: rgb(30, 30, 30); font-family: Consolas, &amp;quot;Courier New&amp;quot;, monospace; font-size: 14px; line-height: 19px;&quot;&gt;moveFileFromLittleFStoSD()&lt;/div&gt;" style="text;strokeColor=none;fillColor=none;align=left;verticalAlign=middle;spacingLeft=4;spacingRight=4;overflow=hidden;points=[[0,0.5],[1,0.5]];portConstraint=eastwest;rotatable=0;whiteSpace=wrap;html=1;rounded=1;shadow=0;labelBackgroundColor=none;comic=0;fillStyle=solid;strokeWidth=1;fontFamily=Verdana;fontSize=12;fontColor=default;startSize=26;" parent="61" vertex="1">
                    <mxGeometry y="120" width="210" height="30" as="geometry"/>
                </mxCell>
                <mxCell id="66" value="&lt;div style=&quot;color: rgb(212, 212, 212); background-color: rgb(30, 30, 30); font-family: Consolas, &amp;quot;Courier New&amp;quot;, monospace; font-size: 14px; line-height: 19px;&quot;&gt;printFileContents()&lt;/div&gt;" style="text;strokeColor=none;fillColor=none;align=left;verticalAlign=middle;spacingLeft=4;spacingRight=4;overflow=hidden;points=[[0,0.5],[1,0.5]];portConstraint=eastwest;rotatable=0;whiteSpace=wrap;html=1;rounded=1;shadow=0;labelBackgroundColor=none;comic=0;fillStyle=solid;strokeWidth=1;fontFamily=Verdana;fontSize=12;fontColor=default;startSize=26;" parent="61" vertex="1">
                    <mxGeometry y="150" width="210" height="30" as="geometry"/>
                </mxCell>
                <mxCell id="67" value="&lt;div style=&quot;color: rgb(212, 212, 212); background-color: rgb(30, 30, 30); font-family: Consolas, &amp;quot;Courier New&amp;quot;, monospace; font-size: 14px; line-height: 19px;&quot;&gt;getStorageInfo()&lt;/div&gt;" style="text;strokeColor=none;fillColor=none;align=left;verticalAlign=middle;spacingLeft=4;spacingRight=4;overflow=hidden;points=[[0,0.5],[1,0.5]];portConstraint=eastwest;rotatable=0;whiteSpace=wrap;html=1;rounded=1;shadow=0;labelBackgroundColor=none;comic=0;fillStyle=solid;strokeWidth=1;fontFamily=Verdana;fontSize=12;fontColor=default;startSize=26;" parent="61" vertex="1">
                    <mxGeometry y="180" width="210" height="30" as="geometry"/>
                </mxCell>
                <mxCell id="68" value="&lt;div style=&quot;color: rgb(212, 212, 212); background-color: rgb(30, 30, 30); font-family: Consolas, &amp;quot;Courier New&amp;quot;, monospace; font-size: 14px; line-height: 19px;&quot;&gt;createExampleFile()&lt;/div&gt;" style="text;strokeColor=none;fillColor=none;align=left;verticalAlign=middle;spacingLeft=4;spacingRight=4;overflow=hidden;points=[[0,0.5],[1,0.5]];portConstraint=eastwest;rotatable=0;whiteSpace=wrap;html=1;rounded=1;shadow=0;labelBackgroundColor=none;comic=0;fillStyle=solid;strokeWidth=1;fontFamily=Verdana;fontSize=12;fontColor=default;startSize=26;" parent="61" vertex="1">
                    <mxGeometry y="210" width="210" height="30" as="geometry"/>
                </mxCell>
                <mxCell id="69" value="&lt;div style=&quot;color: rgb(212, 212, 212); background-color: rgb(30, 30, 30); font-family: Consolas, &amp;quot;Courier New&amp;quot;, monospace; font-size: 14px; line-height: 19px;&quot;&gt;appendNewLine()&lt;/div&gt;" style="text;strokeColor=none;fillColor=none;align=left;verticalAlign=middle;spacingLeft=4;spacingRight=4;overflow=hidden;points=[[0,0.5],[1,0.5]];portConstraint=eastwest;rotatable=0;whiteSpace=wrap;html=1;rounded=1;shadow=0;labelBackgroundColor=none;comic=0;fillStyle=solid;strokeWidth=1;fontFamily=Verdana;fontSize=12;fontColor=default;startSize=26;" parent="61" vertex="1">
                    <mxGeometry y="240" width="210" height="30" as="geometry"/>
                </mxCell>
                <mxCell id="70" value="&lt;div style=&quot;color: rgb(212, 212, 212); background-color: rgb(30, 30, 30); font-family: Consolas, &amp;quot;Courier New&amp;quot;, monospace; font-size: 14px; line-height: 19px;&quot;&gt;create_new_list()&lt;/div&gt;" style="text;strokeColor=none;fillColor=none;align=left;verticalAlign=middle;spacingLeft=4;spacingRight=4;overflow=hidden;points=[[0,0.5],[1,0.5]];portConstraint=eastwest;rotatable=0;whiteSpace=wrap;html=1;rounded=1;shadow=0;labelBackgroundColor=none;comic=0;fillStyle=solid;strokeWidth=1;fontFamily=Verdana;fontSize=12;fontColor=default;startSize=26;" parent="61" vertex="1">
                    <mxGeometry y="270" width="210" height="30" as="geometry"/>
                </mxCell>
                <mxCell id="71" value="Item 3" style="text;strokeColor=none;fillColor=none;align=left;verticalAlign=middle;spacingLeft=4;spacingRight=4;overflow=hidden;points=[[0,0.5],[1,0.5]];portConstraint=eastwest;rotatable=0;whiteSpace=wrap;html=1;rounded=1;shadow=0;labelBackgroundColor=none;comic=0;fillStyle=solid;strokeWidth=1;fontFamily=Verdana;fontSize=12;fontColor=default;startSize=26;" parent="61" vertex="1">
                    <mxGeometry y="300" width="210" height="30" as="geometry"/>
                </mxCell>
                <mxCell id="72" value="&lt;h1 style=&quot;&quot;&gt;&lt;ul style=&quot;font-size: 12px;&quot;&gt;&lt;li&gt;Maintain filesystem&lt;/li&gt;&lt;li&gt;Create files&lt;/li&gt;&lt;li&gt;Append files&lt;/li&gt;&lt;li&gt;Delete files&lt;/li&gt;&lt;li&gt;List files&lt;/li&gt;&lt;li&gt;Storage space management&lt;/li&gt;&lt;/ul&gt;&lt;/h1&gt;" style="text;html=1;strokeColor=none;fillColor=none;spacing=5;spacingTop=-20;whiteSpace=wrap;overflow=hidden;rounded=0;shadow=0;labelBackgroundColor=none;comic=0;fillStyle=solid;strokeWidth=1;fontFamily=Verdana;fontSize=12;fontColor=default;startSize=26;" parent="1" vertex="1">
                    <mxGeometry x="350" y="550" width="330" height="140" as="geometry"/>
                </mxCell>
                <mxCell id="73" value="&lt;h1 style=&quot;&quot;&gt;&lt;ul style=&quot;font-size: 12px;&quot;&gt;&lt;li&gt;Take data from RFID reader&lt;/li&gt;&lt;li&gt;Validate scan&lt;/li&gt;&lt;li&gt;compare against active tags&lt;/li&gt;&lt;li&gt;Scanning modes - add, identify, count, treatments, traits&lt;/li&gt;&lt;li&gt;Comms with RFID reader&lt;/li&gt;&lt;/ul&gt;&lt;/h1&gt;" style="text;html=1;strokeColor=none;fillColor=none;spacing=5;spacingTop=-20;whiteSpace=wrap;overflow=hidden;rounded=0;shadow=0;labelBackgroundColor=none;comic=0;fillStyle=solid;strokeWidth=1;fontFamily=Verdana;fontSize=12;fontColor=default;startSize=26;" parent="1" vertex="1">
                    <mxGeometry x="340" y="120" width="330" height="120" as="geometry"/>
                </mxCell>
                <mxCell id="75" value="Time" style="swimlane;fontStyle=0;childLayout=stackLayout;horizontal=1;startSize=30;horizontalStack=0;resizeParent=1;resizeParentMax=0;resizeLast=0;collapsible=1;marginBottom=0;whiteSpace=wrap;html=1;rounded=1;shadow=0;labelBackgroundColor=none;comic=0;fillStyle=solid;strokeColor=default;strokeWidth=1;fontFamily=Verdana;fontSize=12;fontColor=default;fillColor=none;" parent="1" vertex="1">
                    <mxGeometry x="90" y="890" width="210" height="240" as="geometry"/>
                </mxCell>
                <mxCell id="76" value="&lt;div style=&quot;color: rgb(212, 212, 212); background-color: rgb(30, 30, 30); font-family: Consolas, &amp;quot;Courier New&amp;quot;, monospace; font-size: 14px; line-height: 19px;&quot;&gt;rtc_init()&lt;/div&gt;" style="text;strokeColor=none;fillColor=none;align=left;verticalAlign=middle;spacingLeft=4;spacingRight=4;overflow=hidden;points=[[0,0.5],[1,0.5]];portConstraint=eastwest;rotatable=0;whiteSpace=wrap;html=1;rounded=1;shadow=0;labelBackgroundColor=none;comic=0;fillStyle=solid;strokeWidth=1;fontFamily=Verdana;fontSize=12;fontColor=default;startSize=26;" parent="75" vertex="1">
                    <mxGeometry y="30" width="210" height="30" as="geometry"/>
                </mxCell>
                <mxCell id="77" value="&lt;div style=&quot;color: rgb(212, 212, 212); background-color: rgb(30, 30, 30); font-family: Consolas, &amp;quot;Courier New&amp;quot;, monospace; font-size: 14px; line-height: 19px;&quot;&gt;print_local_time()&lt;/div&gt;" style="text;strokeColor=none;fillColor=none;align=left;verticalAlign=middle;spacingLeft=4;spacingRight=4;overflow=hidden;points=[[0,0.5],[1,0.5]];portConstraint=eastwest;rotatable=0;whiteSpace=wrap;html=1;rounded=1;shadow=0;labelBackgroundColor=none;comic=0;fillStyle=solid;strokeWidth=1;fontFamily=Verdana;fontSize=12;fontColor=default;startSize=26;" parent="75" vertex="1">
                    <mxGeometry y="60" width="210" height="30" as="geometry"/>
                </mxCell>
                <mxCell id="78" value="&lt;div style=&quot;color: rgb(212, 212, 212); background-color: rgb(30, 30, 30); font-family: Consolas, &amp;quot;Courier New&amp;quot;, monospace; font-size: 14px; line-height: 19px;&quot;&gt;set_RTC()&lt;/div&gt;" style="text;strokeColor=none;fillColor=none;align=left;verticalAlign=middle;spacingLeft=4;spacingRight=4;overflow=hidden;points=[[0,0.5],[1,0.5]];portConstraint=eastwest;rotatable=0;whiteSpace=wrap;html=1;rounded=1;shadow=0;labelBackgroundColor=none;comic=0;fillStyle=solid;strokeWidth=1;fontFamily=Verdana;fontSize=12;fontColor=default;startSize=26;" parent="75" vertex="1">
                    <mxGeometry y="90" width="210" height="30" as="geometry"/>
                </mxCell>
                <mxCell id="81" value="&lt;div style=&quot;color: rgb(212, 212, 212); background-color: rgb(30, 30, 30); font-family: Consolas, &amp;quot;Courier New&amp;quot;, monospace; font-size: 14px; line-height: 19px;&quot;&gt;set_RTC_at_compile()&lt;/div&gt;" style="text;strokeColor=none;fillColor=none;align=left;verticalAlign=middle;spacingLeft=4;spacingRight=4;overflow=hidden;points=[[0,0.5],[1,0.5]];portConstraint=eastwest;rotatable=0;whiteSpace=wrap;html=1;rounded=1;shadow=0;labelBackgroundColor=none;comic=0;fillStyle=solid;strokeWidth=1;fontFamily=Verdana;fontSize=12;fontColor=default;startSize=26;" parent="75" vertex="1">
                    <mxGeometry y="120" width="210" height="30" as="geometry"/>
                </mxCell>
                <mxCell id="82" value="&lt;div style=&quot;color: rgb(212, 212, 212); background-color: rgb(30, 30, 30); font-family: Consolas, &amp;quot;Courier New&amp;quot;, monospace; font-size: 14px; line-height: 19px;&quot;&gt;&lt;div style=&quot;line-height: 19px;&quot;&gt;timestamp()&lt;/div&gt;&lt;/div&gt;" style="text;strokeColor=none;fillColor=none;align=left;verticalAlign=middle;spacingLeft=4;spacingRight=4;overflow=hidden;points=[[0,0.5],[1,0.5]];portConstraint=eastwest;rotatable=0;whiteSpace=wrap;html=1;rounded=1;shadow=0;labelBackgroundColor=none;comic=0;fillStyle=solid;strokeWidth=1;fontFamily=Verdana;fontSize=12;fontColor=default;startSize=26;" parent="75" vertex="1">
                    <mxGeometry y="150" width="210" height="30" as="geometry"/>
                </mxCell>
                <mxCell id="83" value="&lt;div style=&quot;color: rgb(212, 212, 212); background-color: rgb(30, 30, 30); font-family: Consolas, &amp;quot;Courier New&amp;quot;, monospace; font-size: 14px; line-height: 19px;&quot;&gt;&lt;div style=&quot;line-height: 19px;&quot;&gt;&lt;div style=&quot;line-height: 19px;&quot;&gt;get_NTP_time()&lt;/div&gt;&lt;/div&gt;&lt;/div&gt;" style="text;strokeColor=none;fillColor=none;align=left;verticalAlign=middle;spacingLeft=4;spacingRight=4;overflow=hidden;points=[[0,0.5],[1,0.5]];portConstraint=eastwest;rotatable=0;whiteSpace=wrap;html=1;rounded=1;shadow=0;labelBackgroundColor=none;comic=0;fillStyle=solid;strokeWidth=1;fontFamily=Verdana;fontSize=12;fontColor=default;startSize=26;" parent="75" vertex="1">
                    <mxGeometry y="180" width="210" height="30" as="geometry"/>
                </mxCell>
                <mxCell id="84" value="&lt;div style=&quot;color: rgb(212, 212, 212); background-color: rgb(30, 30, 30); font-family: Consolas, &amp;quot;Courier New&amp;quot;, monospace; font-size: 14px; line-height: 19px;&quot;&gt;&lt;div style=&quot;line-height: 19px;&quot;&gt;&lt;div style=&quot;line-height: 19px;&quot;&gt;&lt;div style=&quot;line-height: 19px;&quot;&gt;get_RTC_temperature()&lt;/div&gt;&lt;/div&gt;&lt;/div&gt;&lt;/div&gt;" style="text;strokeColor=none;fillColor=none;align=left;verticalAlign=middle;spacingLeft=4;spacingRight=4;overflow=hidden;points=[[0,0.5],[1,0.5]];portConstraint=eastwest;rotatable=0;whiteSpace=wrap;html=1;rounded=1;shadow=0;labelBackgroundColor=none;comic=0;fillStyle=solid;strokeWidth=1;fontFamily=Verdana;fontSize=12;fontColor=default;startSize=26;" parent="75" vertex="1">
                    <mxGeometry y="210" width="210" height="30" as="geometry"/>
                </mxCell>
                <mxCell id="80" value="&lt;h1 style=&quot;&quot;&gt;&lt;ul style=&quot;font-size: 12px;&quot;&gt;&lt;li&gt;RTC&lt;/li&gt;&lt;li&gt;Internal timeNTP (if connected to internet)&lt;/li&gt;&lt;/ul&gt;&lt;/h1&gt;" style="text;html=1;strokeColor=none;fillColor=none;spacing=5;spacingTop=-20;whiteSpace=wrap;overflow=hidden;rounded=0;shadow=0;labelBackgroundColor=none;comic=0;fillStyle=solid;strokeWidth=1;fontFamily=Verdana;fontSize=12;fontColor=default;startSize=26;" parent="1" vertex="1">
                    <mxGeometry x="350" y="890" width="330" height="120" as="geometry"/>
                </mxCell>
                <mxCell id="85" value="Display" style="swimlane;fontStyle=0;childLayout=stackLayout;horizontal=1;startSize=30;horizontalStack=0;resizeParent=1;resizeParentMax=0;resizeLast=0;collapsible=1;marginBottom=0;whiteSpace=wrap;html=1;rounded=1;shadow=0;labelBackgroundColor=none;comic=0;fillStyle=solid;strokeColor=default;strokeWidth=1;fontFamily=Verdana;fontSize=12;fontColor=default;fillColor=none;arcSize=13;" parent="1" vertex="1">
                    <mxGeometry x="90" y="1150" width="210" height="180" as="geometry">
                        <mxRectangle x="90" y="1040" width="210" height="30" as="alternateBounds"/>
                    </mxGeometry>
                </mxCell>
                <mxCell id="86" value="&lt;div style=&quot;color: rgb(212, 212, 212); background-color: rgb(30, 30, 30); font-family: Consolas, &amp;quot;Courier New&amp;quot;, monospace; font-size: 14px; line-height: 19px;&quot;&gt;initDisplay()&lt;/div&gt;" style="text;strokeColor=none;fillColor=none;align=left;verticalAlign=middle;spacingLeft=4;spacingRight=4;overflow=hidden;points=[[0,0.5],[1,0.5]];portConstraint=eastwest;rotatable=0;whiteSpace=wrap;html=1;rounded=1;shadow=0;labelBackgroundColor=none;comic=0;fillStyle=solid;strokeWidth=1;fontFamily=Verdana;fontSize=12;fontColor=default;startSize=26;" parent="85" vertex="1">
                    <mxGeometry y="30" width="210" height="30" as="geometry"/>
                </mxCell>
                <mxCell id="87" value="&lt;div style=&quot;color: rgb(212, 212, 212); background-color: rgb(30, 30, 30); font-family: Consolas, &amp;quot;Courier New&amp;quot;, monospace; font-size: 14px; line-height: 19px;&quot;&gt;lv_disp_flush()&lt;/div&gt;" style="text;strokeColor=none;fillColor=none;align=left;verticalAlign=middle;spacingLeft=4;spacingRight=4;overflow=hidden;points=[[0,0.5],[1,0.5]];portConstraint=eastwest;rotatable=0;whiteSpace=wrap;html=1;rounded=1;shadow=0;labelBackgroundColor=none;comic=0;fillStyle=solid;strokeWidth=1;fontFamily=Verdana;fontSize=12;fontColor=default;startSize=26;" parent="85" vertex="1">
                    <mxGeometry y="60" width="210" height="30" as="geometry"/>
                </mxCell>
                <mxCell id="88" value="&lt;div style=&quot;color: rgb(212, 212, 212); background-color: rgb(30, 30, 30); font-family: Consolas, &amp;quot;Courier New&amp;quot;, monospace; font-size: 14px; line-height: 19px;&quot;&gt;lv_encoder_read()&lt;/div&gt;" style="text;strokeColor=none;fillColor=none;align=left;verticalAlign=middle;spacingLeft=4;spacingRight=4;overflow=hidden;points=[[0,0.5],[1,0.5]];portConstraint=eastwest;rotatable=0;whiteSpace=wrap;html=1;rounded=1;shadow=0;labelBackgroundColor=none;comic=0;fillStyle=solid;strokeWidth=1;fontFamily=Verdana;fontSize=12;fontColor=default;startSize=26;" parent="85" vertex="1">
                    <mxGeometry y="90" width="210" height="30" as="geometry"/>
                </mxCell>
                <mxCell id="116" value="&lt;div style=&quot;color: rgb(212, 212, 212); background-color: rgb(30, 30, 30); font-family: Consolas, &amp;quot;Courier New&amp;quot;, monospace; font-size: 14px; line-height: 19px;&quot;&gt;lv_begin()&lt;/div&gt;" style="text;strokeColor=none;fillColor=none;align=left;verticalAlign=middle;spacingLeft=4;spacingRight=4;overflow=hidden;points=[[0,0.5],[1,0.5]];portConstraint=eastwest;rotatable=0;whiteSpace=wrap;html=1;rounded=1;shadow=0;labelBackgroundColor=none;comic=0;fillStyle=solid;strokeWidth=1;fontFamily=Verdana;fontSize=12;fontColor=default;startSize=26;" parent="85" vertex="1">
                    <mxGeometry y="120" width="210" height="30" as="geometry"/>
                </mxCell>
                <mxCell id="117" value="&lt;div style=&quot;color: rgb(212, 212, 212); background-color: rgb(30, 30, 30); font-family: Consolas, &amp;quot;Courier New&amp;quot;, monospace; font-size: 14px; line-height: 19px;&quot;&gt;&lt;div style=&quot;line-height: 19px;&quot;&gt;lv_handler()&lt;/div&gt;&lt;/div&gt;" style="text;strokeColor=none;fillColor=none;align=left;verticalAlign=middle;spacingLeft=4;spacingRight=4;overflow=hidden;points=[[0,0.5],[1,0.5]];portConstraint=eastwest;rotatable=0;whiteSpace=wrap;html=1;rounded=1;shadow=0;labelBackgroundColor=none;comic=0;fillStyle=solid;strokeWidth=1;fontFamily=Verdana;fontSize=12;fontColor=default;startSize=26;" parent="85" vertex="1">
                    <mxGeometry y="150" width="210" height="30" as="geometry"/>
                </mxCell>
                <mxCell id="89" value="&lt;h1 style=&quot;&quot;&gt;&lt;ul style=&quot;font-size: 12px;&quot;&gt;&lt;li&gt;Initialise display&lt;/li&gt;&lt;li&gt;UI&lt;/li&gt;&lt;li&gt;Display scan info&lt;/li&gt;&lt;li&gt;&lt;font color=&quot;#f7c81d&quot;&gt;Encoder and button event handlers to Feedback?&lt;/font&gt;&lt;/li&gt;&lt;/ul&gt;&lt;/h1&gt;" style="text;html=1;strokeColor=none;fillColor=none;spacing=5;spacingTop=-20;whiteSpace=wrap;overflow=hidden;rounded=0;shadow=0;labelBackgroundColor=none;comic=0;fillStyle=solid;strokeWidth=1;fontFamily=Verdana;fontSize=12;fontColor=default;startSize=26;" parent="1" vertex="1">
                    <mxGeometry x="350" y="1150" width="330" height="120" as="geometry"/>
                </mxCell>
                <mxCell id="90" value="WiFi" style="swimlane;fontStyle=0;childLayout=stackLayout;horizontal=1;startSize=30;horizontalStack=0;resizeParent=1;resizeParentMax=0;resizeLast=0;collapsible=1;marginBottom=0;whiteSpace=wrap;html=1;rounded=1;shadow=0;labelBackgroundColor=none;comic=0;fillStyle=solid;strokeColor=default;strokeWidth=1;fontFamily=Verdana;fontSize=12;fontColor=default;fillColor=none;" parent="1" vertex="1">
                    <mxGeometry x="90" y="1350" width="210" height="120" as="geometry"/>
                </mxCell>
                <mxCell id="91" value="Item 1" style="text;strokeColor=none;fillColor=none;align=left;verticalAlign=middle;spacingLeft=4;spacingRight=4;overflow=hidden;points=[[0,0.5],[1,0.5]];portConstraint=eastwest;rotatable=0;whiteSpace=wrap;html=1;rounded=1;shadow=0;labelBackgroundColor=none;comic=0;fillStyle=solid;strokeWidth=1;fontFamily=Verdana;fontSize=12;fontColor=default;startSize=26;" parent="90" vertex="1">
                    <mxGeometry y="30" width="210" height="30" as="geometry"/>
                </mxCell>
                <mxCell id="92" value="Item 2" style="text;strokeColor=none;fillColor=none;align=left;verticalAlign=middle;spacingLeft=4;spacingRight=4;overflow=hidden;points=[[0,0.5],[1,0.5]];portConstraint=eastwest;rotatable=0;whiteSpace=wrap;html=1;rounded=1;shadow=0;labelBackgroundColor=none;comic=0;fillStyle=solid;strokeWidth=1;fontFamily=Verdana;fontSize=12;fontColor=default;startSize=26;" parent="90" vertex="1">
                    <mxGeometry y="60" width="210" height="30" as="geometry"/>
                </mxCell>
                <mxCell id="93" value="Item 3" style="text;strokeColor=none;fillColor=none;align=left;verticalAlign=middle;spacingLeft=4;spacingRight=4;overflow=hidden;points=[[0,0.5],[1,0.5]];portConstraint=eastwest;rotatable=0;whiteSpace=wrap;html=1;rounded=1;shadow=0;labelBackgroundColor=none;comic=0;fillStyle=solid;strokeWidth=1;fontFamily=Verdana;fontSize=12;fontColor=default;startSize=26;" parent="90" vertex="1">
                    <mxGeometry y="90" width="210" height="30" as="geometry"/>
                </mxCell>
                <mxCell id="94" value="&lt;h1 style=&quot;&quot;&gt;&lt;ul style=&quot;font-size: 12px;&quot;&gt;&lt;li&gt;WiFi connections&lt;/li&gt;&lt;li&gt;WiFi AP&lt;/li&gt;&lt;li&gt;Webserver&lt;/li&gt;&lt;/ul&gt;&lt;/h1&gt;" style="text;html=1;strokeColor=none;fillColor=none;spacing=5;spacingTop=-20;whiteSpace=wrap;overflow=hidden;rounded=0;shadow=0;labelBackgroundColor=none;comic=0;fillStyle=solid;strokeWidth=1;fontFamily=Verdana;fontSize=12;fontColor=default;startSize=26;" parent="1" vertex="1">
                    <mxGeometry x="350" y="1370" width="330" height="120" as="geometry"/>
                </mxCell>
                <mxCell id="95" value="Webpages" style="swimlane;fontStyle=0;childLayout=stackLayout;horizontal=1;startSize=30;horizontalStack=0;resizeParent=1;resizeParentMax=0;resizeLast=0;collapsible=1;marginBottom=0;whiteSpace=wrap;html=1;rounded=1;shadow=0;labelBackgroundColor=none;comic=0;fillStyle=solid;strokeColor=default;strokeWidth=1;fontFamily=Verdana;fontSize=12;fontColor=default;fillColor=none;arcSize=23;" parent="1" vertex="1">
                    <mxGeometry x="90" y="1510" width="210" height="120" as="geometry"/>
                </mxCell>
                <mxCell id="96" value="Item 1" style="text;strokeColor=none;fillColor=none;align=left;verticalAlign=middle;spacingLeft=4;spacingRight=4;overflow=hidden;points=[[0,0.5],[1,0.5]];portConstraint=eastwest;rotatable=0;whiteSpace=wrap;html=1;rounded=1;shadow=0;labelBackgroundColor=none;comic=0;fillStyle=solid;strokeWidth=1;fontFamily=Verdana;fontSize=12;fontColor=default;startSize=26;" parent="95" vertex="1">
                    <mxGeometry y="30" width="210" height="30" as="geometry"/>
                </mxCell>
                <mxCell id="97" value="Item 2" style="text;strokeColor=none;fillColor=none;align=left;verticalAlign=middle;spacingLeft=4;spacingRight=4;overflow=hidden;points=[[0,0.5],[1,0.5]];portConstraint=eastwest;rotatable=0;whiteSpace=wrap;html=1;rounded=1;shadow=0;labelBackgroundColor=none;comic=0;fillStyle=solid;strokeWidth=1;fontFamily=Verdana;fontSize=12;fontColor=default;startSize=26;" parent="95" vertex="1">
                    <mxGeometry y="60" width="210" height="30" as="geometry"/>
                </mxCell>
                <mxCell id="98" value="Item 3" style="text;strokeColor=none;fillColor=none;align=left;verticalAlign=middle;spacingLeft=4;spacingRight=4;overflow=hidden;points=[[0,0.5],[1,0.5]];portConstraint=eastwest;rotatable=0;whiteSpace=wrap;html=1;rounded=1;shadow=0;labelBackgroundColor=none;comic=0;fillStyle=solid;strokeWidth=1;fontFamily=Verdana;fontSize=12;fontColor=default;startSize=26;" parent="95" vertex="1">
                    <mxGeometry y="90" width="210" height="30" as="geometry"/>
                </mxCell>
                <mxCell id="99" value="&lt;h1 style=&quot;&quot;&gt;&lt;ul style=&quot;font-size: 12px;&quot;&gt;&lt;li&gt;Replicate UI&lt;/li&gt;&lt;li&gt;2 way comms - work from either external device or stick reader&lt;/li&gt;&lt;li&gt;Async webserver&lt;/li&gt;&lt;/ul&gt;&lt;/h1&gt;" style="text;html=1;strokeColor=none;fillColor=none;spacing=5;spacingTop=-20;whiteSpace=wrap;overflow=hidden;rounded=0;shadow=0;labelBackgroundColor=none;comic=0;fillStyle=solid;strokeWidth=1;fontFamily=Verdana;fontSize=12;fontColor=default;startSize=26;" parent="1" vertex="1">
                    <mxGeometry x="350" y="1510" width="330" height="120" as="geometry"/>
                </mxCell>
                <mxCell id="100" value="Feedback" style="swimlane;fontStyle=0;childLayout=stackLayout;horizontal=1;startSize=30;horizontalStack=0;resizeParent=1;resizeParentMax=0;resizeLast=0;collapsible=1;marginBottom=0;whiteSpace=wrap;html=1;rounded=1;shadow=0;labelBackgroundColor=none;comic=0;fillStyle=solid;strokeColor=default;strokeWidth=1;fontFamily=Verdana;fontSize=12;fontColor=default;fillColor=none;" parent="1" vertex="1">
                    <mxGeometry x="90" y="1660" width="210" height="360" as="geometry"/>
                </mxCell>
                <mxCell id="101" value="&lt;div style=&quot;color: rgb(212, 212, 212); background-color: rgb(30, 30, 30); font-family: Consolas, &amp;quot;Courier New&amp;quot;, monospace; font-size: 14px; line-height: 19px;&quot;&gt;initAudio()&lt;/div&gt;" style="text;strokeColor=none;fillColor=none;align=left;verticalAlign=middle;spacingLeft=4;spacingRight=4;overflow=hidden;points=[[0,0.5],[1,0.5]];portConstraint=eastwest;rotatable=0;whiteSpace=wrap;html=1;rounded=1;shadow=0;labelBackgroundColor=none;comic=0;fillStyle=solid;strokeWidth=1;fontFamily=Verdana;fontSize=12;fontColor=default;startSize=26;" parent="100" vertex="1">
                    <mxGeometry y="30" width="210" height="30" as="geometry"/>
                </mxCell>
                <mxCell id="102" value="&lt;div style=&quot;color: rgb(212, 212, 212); background-color: rgb(30, 30, 30); font-family: Consolas, &amp;quot;Courier New&amp;quot;, monospace; font-size: 14px; line-height: 19px;&quot;&gt;playScanGood()&lt;/div&gt;" style="text;strokeColor=none;fillColor=none;align=left;verticalAlign=middle;spacingLeft=4;spacingRight=4;overflow=hidden;points=[[0,0.5],[1,0.5]];portConstraint=eastwest;rotatable=0;whiteSpace=wrap;html=1;rounded=1;shadow=0;labelBackgroundColor=none;comic=0;fillStyle=solid;strokeWidth=1;fontFamily=Verdana;fontSize=12;fontColor=default;startSize=26;" parent="100" vertex="1">
                    <mxGeometry y="60" width="210" height="30" as="geometry"/>
                </mxCell>
                <mxCell id="103" value="&lt;div style=&quot;color: rgb(212, 212, 212); background-color: rgb(30, 30, 30); font-family: Consolas, &amp;quot;Courier New&amp;quot;, monospace; font-size: 14px; line-height: 19px;&quot;&gt;playScanBad()&lt;/div&gt;" style="text;strokeColor=none;fillColor=none;align=left;verticalAlign=middle;spacingLeft=4;spacingRight=4;overflow=hidden;points=[[0,0.5],[1,0.5]];portConstraint=eastwest;rotatable=0;whiteSpace=wrap;html=1;rounded=1;shadow=0;labelBackgroundColor=none;comic=0;fillStyle=solid;strokeWidth=1;fontFamily=Verdana;fontSize=12;fontColor=default;startSize=26;" parent="100" vertex="1">
                    <mxGeometry y="90" width="210" height="30" as="geometry"/>
                </mxCell>
                <mxCell id="105" value="&lt;div style=&quot;color: rgb(212, 212, 212); background-color: rgb(30, 30, 30); font-family: Consolas, &amp;quot;Courier New&amp;quot;, monospace; font-size: 14px; line-height: 19px;&quot;&gt;&lt;div style=&quot;line-height: 19px;&quot;&gt;initLED()&lt;/div&gt;&lt;/div&gt;" style="text;strokeColor=none;fillColor=none;align=left;verticalAlign=middle;spacingLeft=4;spacingRight=4;overflow=hidden;points=[[0,0.5],[1,0.5]];portConstraint=eastwest;rotatable=0;whiteSpace=wrap;html=1;rounded=1;shadow=0;labelBackgroundColor=none;comic=0;fillStyle=solid;strokeWidth=1;fontFamily=Verdana;fontSize=12;fontColor=default;startSize=26;" parent="100" vertex="1">
                    <mxGeometry y="120" width="210" height="30" as="geometry"/>
                </mxCell>
                <mxCell id="106" value="&lt;div style=&quot;color: rgb(212, 212, 212); background-color: rgb(30, 30, 30); font-family: Consolas, &amp;quot;Courier New&amp;quot;, monospace; font-size: 14px; line-height: 19px;&quot;&gt;&lt;div style=&quot;line-height: 19px;&quot;&gt;led_task()&lt;/div&gt;&lt;/div&gt;" style="text;strokeColor=none;fillColor=none;align=left;verticalAlign=middle;spacingLeft=4;spacingRight=4;overflow=hidden;points=[[0,0.5],[1,0.5]];portConstraint=eastwest;rotatable=0;whiteSpace=wrap;html=1;rounded=1;shadow=0;labelBackgroundColor=none;comic=0;fillStyle=solid;strokeWidth=1;fontFamily=Verdana;fontSize=12;fontColor=default;startSize=26;" parent="100" vertex="1">
                    <mxGeometry y="150" width="210" height="30" as="geometry"/>
                </mxCell>
                <mxCell id="107" value="&lt;div style=&quot;color: rgb(212, 212, 212); background-color: rgb(30, 30, 30); font-family: Consolas, &amp;quot;Courier New&amp;quot;, monospace; font-size: 14px; line-height: 19px;&quot;&gt;&lt;div style=&quot;line-height: 19px;&quot;&gt;&lt;div style=&quot;line-height: 19px;&quot;&gt;rgb_color hsvToRgb()&lt;/div&gt;&lt;/div&gt;&lt;/div&gt;" style="text;strokeColor=none;fillColor=none;align=left;verticalAlign=middle;spacingLeft=4;spacingRight=4;overflow=hidden;points=[[0,0.5],[1,0.5]];portConstraint=eastwest;rotatable=0;whiteSpace=wrap;html=1;rounded=1;shadow=0;labelBackgroundColor=none;comic=0;fillStyle=solid;strokeWidth=1;fontFamily=Verdana;fontSize=12;fontColor=default;startSize=26;" parent="100" vertex="1">
                    <mxGeometry y="180" width="210" height="30" as="geometry"/>
                </mxCell>
                <mxCell id="108" value="&lt;div style=&quot;color: rgb(212, 212, 212); background-color: rgb(30, 30, 30); font-family: Consolas, &amp;quot;Courier New&amp;quot;, monospace; font-size: 14px; line-height: 19px;&quot;&gt;&lt;div style=&quot;line-height: 19px;&quot;&gt;&lt;div style=&quot;line-height: 19px;&quot;&gt;&lt;div style=&quot;line-height: 19px;&quot;&gt;changeLEDmode()&lt;/div&gt;&lt;/div&gt;&lt;/div&gt;&lt;/div&gt;" style="text;strokeColor=none;fillColor=none;align=left;verticalAlign=middle;spacingLeft=4;spacingRight=4;overflow=hidden;points=[[0,0.5],[1,0.5]];portConstraint=eastwest;rotatable=0;whiteSpace=wrap;html=1;rounded=1;shadow=0;labelBackgroundColor=none;comic=0;fillStyle=solid;strokeWidth=1;fontFamily=Verdana;fontSize=12;fontColor=default;startSize=26;" parent="100" vertex="1">
                    <mxGeometry y="210" width="210" height="30" as="geometry"/>
                </mxCell>
                <mxCell id="109" value="&lt;div style=&quot;color: rgb(212, 212, 212); background-color: rgb(30, 30, 30); font-family: Consolas, &amp;quot;Courier New&amp;quot;, monospace; font-size: 14px; line-height: 19px;&quot;&gt;&lt;div style=&quot;line-height: 19px;&quot;&gt;&lt;div style=&quot;line-height: 19px;&quot;&gt;&lt;div style=&quot;line-height: 19px;&quot;&gt;&lt;div style=&quot;line-height: 19px;&quot;&gt;initButton()&lt;/div&gt;&lt;/div&gt;&lt;/div&gt;&lt;/div&gt;&lt;/div&gt;" style="text;strokeColor=none;fillColor=none;align=left;verticalAlign=middle;spacingLeft=4;spacingRight=4;overflow=hidden;points=[[0,0.5],[1,0.5]];portConstraint=eastwest;rotatable=0;whiteSpace=wrap;html=1;rounded=1;shadow=0;labelBackgroundColor=none;comic=0;fillStyle=solid;strokeWidth=1;fontFamily=Verdana;fontSize=12;fontColor=default;startSize=26;" parent="100" vertex="1">
                    <mxGeometry y="240" width="210" height="30" as="geometry"/>
                </mxCell>
                <mxCell id="110" value="&lt;div style=&quot;color: rgb(212, 212, 212); background-color: rgb(30, 30, 30); font-family: Consolas, &amp;quot;Courier New&amp;quot;, monospace; font-size: 14px; line-height: 19px;&quot;&gt;&lt;div style=&quot;line-height: 19px;&quot;&gt;&lt;div style=&quot;line-height: 19px;&quot;&gt;&lt;div style=&quot;line-height: 19px;&quot;&gt;&lt;div style=&quot;line-height: 19px;&quot;&gt;button_pressed()&lt;/div&gt;&lt;/div&gt;&lt;/div&gt;&lt;/div&gt;&lt;/div&gt;" style="text;strokeColor=none;fillColor=none;align=left;verticalAlign=middle;spacingLeft=4;spacingRight=4;overflow=hidden;points=[[0,0.5],[1,0.5]];portConstraint=eastwest;rotatable=0;whiteSpace=wrap;html=1;rounded=1;shadow=0;labelBackgroundColor=none;comic=0;fillStyle=solid;strokeWidth=1;fontFamily=Verdana;fontSize=12;fontColor=default;startSize=26;" parent="100" vertex="1">
                    <mxGeometry y="270" width="210" height="30" as="geometry"/>
                </mxCell>
                <mxCell id="111" value="&lt;div style=&quot;color: rgb(212, 212, 212); background-color: rgb(30, 30, 30); font-family: Consolas, &amp;quot;Courier New&amp;quot;, monospace; font-size: 14px; line-height: 19px;&quot;&gt;&lt;div style=&quot;line-height: 19px;&quot;&gt;&lt;div style=&quot;line-height: 19px;&quot;&gt;&lt;div style=&quot;line-height: 19px;&quot;&gt;&lt;div style=&quot;line-height: 19px;&quot;&gt;&lt;div style=&quot;line-height: 19px;&quot;&gt;getBatteryVoltage()&lt;/div&gt;&lt;/div&gt;&lt;/div&gt;&lt;/div&gt;&lt;/div&gt;&lt;/div&gt;" style="text;strokeColor=none;fillColor=none;align=left;verticalAlign=middle;spacingLeft=4;spacingRight=4;overflow=hidden;points=[[0,0.5],[1,0.5]];portConstraint=eastwest;rotatable=0;whiteSpace=wrap;html=1;rounded=1;shadow=0;labelBackgroundColor=none;comic=0;fillStyle=solid;strokeWidth=1;fontFamily=Verdana;fontSize=12;fontColor=default;startSize=26;" parent="100" vertex="1">
                    <mxGeometry y="300" width="210" height="30" as="geometry"/>
                </mxCell>
                <mxCell id="112" value="&lt;div style=&quot;color: rgb(212, 212, 212); background-color: rgb(30, 30, 30); font-family: Consolas, &amp;quot;Courier New&amp;quot;, monospace; font-size: 14px; line-height: 19px;&quot;&gt;&lt;div style=&quot;line-height: 19px;&quot;&gt;&lt;div style=&quot;line-height: 19px;&quot;&gt;&lt;div style=&quot;line-height: 19px;&quot;&gt;&lt;div style=&quot;line-height: 19px;&quot;&gt;&lt;div style=&quot;line-height: 19px;&quot;&gt;&lt;div style=&quot;line-height: 19px;&quot;&gt;getBatteryChargeState() &lt;/div&gt;&lt;/div&gt;&lt;/div&gt;&lt;/div&gt;&lt;/div&gt;&lt;/div&gt;&lt;/div&gt;" style="text;strokeColor=none;fillColor=none;align=left;verticalAlign=middle;spacingLeft=4;spacingRight=4;overflow=hidden;points=[[0,0.5],[1,0.5]];portConstraint=eastwest;rotatable=0;whiteSpace=wrap;html=1;rounded=1;shadow=0;labelBackgroundColor=none;comic=0;fillStyle=solid;strokeWidth=1;fontFamily=Verdana;fontSize=12;fontColor=default;startSize=26;" parent="100" vertex="1">
                    <mxGeometry y="330" width="210" height="30" as="geometry"/>
                </mxCell>
                <mxCell id="104" value="&lt;h1 style=&quot;&quot;&gt;&lt;ul style=&quot;font-size: 12px;&quot;&gt;&lt;li&gt;Sounds&lt;/li&gt;&lt;li&gt;Buttons&lt;/li&gt;&lt;li&gt;LED's&lt;/li&gt;&lt;li&gt;System info - battery &amp;amp; charge status&lt;/li&gt;&lt;li&gt;&lt;font color=&quot;#990000&quot;&gt;Vibration&lt;/font&gt;&lt;/li&gt;&lt;/ul&gt;&lt;/h1&gt;" style="text;html=1;strokeColor=none;fillColor=none;spacing=5;spacingTop=-20;whiteSpace=wrap;overflow=hidden;rounded=0;shadow=0;labelBackgroundColor=none;comic=0;fillStyle=solid;strokeWidth=1;fontFamily=Verdana;fontSize=12;fontColor=default;startSize=26;" parent="1" vertex="1">
                    <mxGeometry x="350" y="1660" width="330" height="120" as="geometry"/>
                </mxCell>
                <mxCell id="115" value="Open Tag Reader" style="text;strokeColor=none;fillColor=none;align=left;verticalAlign=top;spacingLeft=4;spacingRight=4;overflow=hidden;rotatable=0;points=[[0,0.5],[1,0.5]];portConstraint=eastwest;whiteSpace=wrap;html=1;rounded=1;shadow=0;labelBackgroundColor=none;comic=0;fillStyle=solid;strokeWidth=1;fontFamily=Verdana;fontSize=40;fontColor=default;startSize=26;" parent="1" vertex="1">
                    <mxGeometry x="280" y="20" width="440" height="60" as="geometry"/>
                </mxCell>
                <mxCell id="122" value="Is tag vaild?" style="strokeWidth=2;html=1;shape=mxgraph.flowchart.decision;whiteSpace=wrap;" vertex="1" parent="1">
                    <mxGeometry x="517.5" y="2280" width="100" height="100" as="geometry"/>
                </mxCell>
                <mxCell id="123" value="Trim out underscores&lt;br&gt;Convert to char array and send to ortSanning.cpp&amp;nbsp;" style="rounded=1;whiteSpace=wrap;html=1;absoluteArcSize=1;arcSize=14;strokeWidth=2;" vertex="1" parent="1">
                    <mxGeometry x="517.5" y="2150" width="100" height="100" as="geometry"/>
                </mxCell>
                <mxCell id="125" value="" style="edgeStyle=segmentEdgeStyle;endArrow=classic;html=1;curved=0;rounded=0;endSize=8;startSize=8;exitX=0.5;exitY=1;exitDx=0;exitDy=0;entryX=0.5;entryY=0;entryDx=0;entryDy=0;entryPerimeter=0;" edge="1" parent="1" source="123" target="122">
                    <mxGeometry width="50" height="50" relative="1" as="geometry">
                        <mxPoint x="480" y="2380" as="sourcePoint"/>
                        <mxPoint x="530" y="2330" as="targetPoint"/>
                    </mxGeometry>
                </mxCell>
                <mxCell id="126" value="" style="endArrow=classic;html=1;exitX=0.5;exitY=0.5;exitDx=0;exitDy=35;exitPerimeter=0;entryX=0.5;entryY=0;entryDx=0;entryDy=0;" edge="1" parent="1" source="58" target="123">
                    <mxGeometry width="50" height="50" relative="1" as="geometry">
                        <mxPoint x="480" y="2280" as="sourcePoint"/>
                        <mxPoint x="530" y="2230" as="targetPoint"/>
                    </mxGeometry>
                </mxCell>
                <mxCell id="127" value="Is tag Active?" style="strokeWidth=2;html=1;shape=mxgraph.flowchart.decision;whiteSpace=wrap;" vertex="1" parent="1">
                    <mxGeometry x="517.5" y="2440" width="100" height="100" as="geometry"/>
                </mxCell>
                <mxCell id="128" value="Dog?" style="strokeWidth=2;html=1;shape=mxgraph.flowchart.decision;whiteSpace=wrap;" vertex="1" parent="1">
                    <mxGeometry x="690" y="2280" width="100" height="100" as="geometry"/>
                </mxCell>
                <mxCell id="132" value="" style="endArrow=classic;html=1;exitX=1;exitY=0.5;exitDx=0;exitDy=0;exitPerimeter=0;entryX=0;entryY=0.5;entryDx=0;entryDy=0;entryPerimeter=0;startArrow=none;" edge="1" parent="1" source="133" target="128">
                    <mxGeometry width="50" height="50" relative="1" as="geometry">
                        <mxPoint x="620" y="2320" as="sourcePoint"/>
                        <mxPoint x="670" y="2270" as="targetPoint"/>
                    </mxGeometry>
                </mxCell>
                <mxCell id="134" value="" style="endArrow=classic;html=1;exitX=0.5;exitY=1;exitDx=0;exitDy=0;exitPerimeter=0;entryX=0.5;entryY=0;entryDx=0;entryDy=0;entryPerimeter=0;startArrow=none;" edge="1" parent="1" source="141" target="127">
                    <mxGeometry width="50" height="50" relative="1" as="geometry">
                        <mxPoint x="480" y="2480" as="sourcePoint"/>
                        <mxPoint x="530" y="2430" as="targetPoint"/>
                    </mxGeometry>
                </mxCell>
                <mxCell id="138" value="" style="endArrow=classic;html=1;exitX=1;exitY=0.5;exitDx=0;exitDy=0;exitPerimeter=0;entryX=0;entryY=0.5;entryDx=0;entryDy=0;entryPerimeter=0;startArrow=none;" edge="1" parent="1" source="140">
                    <mxGeometry width="50" height="50" relative="1" as="geometry">
                        <mxPoint x="500" y="2480" as="sourcePoint"/>
                        <mxPoint x="860" y="2330" as="targetPoint"/>
                    </mxGeometry>
                </mxCell>
                <mxCell id="139" value="" style="endArrow=classic;html=1;exitX=0.5;exitY=1;exitDx=0;exitDy=0;exitPerimeter=0;entryX=0.5;entryY=0;entryDx=0;entryDy=0;entryPerimeter=0;startArrow=none;" edge="1" parent="1" source="142">
                    <mxGeometry width="50" height="50" relative="1" as="geometry">
                        <mxPoint x="500" y="2480" as="sourcePoint"/>
                        <mxPoint x="740" y="2431" as="targetPoint"/>
                    </mxGeometry>
                </mxCell>
                <mxCell id="143" value="" style="endArrow=none;html=1;exitX=0.5;exitY=1;exitDx=0;exitDy=0;exitPerimeter=0;entryX=0.5;entryY=0;entryDx=0;entryDy=0;entryPerimeter=0;" edge="1" parent="1" source="128" target="142">
                    <mxGeometry width="50" height="50" relative="1" as="geometry">
                        <mxPoint x="740" y="2380" as="sourcePoint"/>
                        <mxPoint x="740" y="2440" as="targetPoint"/>
                    </mxGeometry>
                </mxCell>
                <mxCell id="142" value="Yes" style="text;html=1;align=center;verticalAlign=middle;resizable=0;points=[];autosize=1;strokeColor=none;fillColor=none;" vertex="1" parent="1">
                    <mxGeometry x="720" y="2386" width="40" height="30" as="geometry"/>
                </mxCell>
                <mxCell id="144" value="" style="endArrow=none;html=1;exitX=0.5;exitY=1;exitDx=0;exitDy=0;exitPerimeter=0;entryX=0.5;entryY=0;entryDx=0;entryDy=0;entryPerimeter=0;" edge="1" parent="1" source="122" target="141">
                    <mxGeometry width="50" height="50" relative="1" as="geometry">
                        <mxPoint x="567.5" y="2380" as="sourcePoint"/>
                        <mxPoint x="567.5" y="2420" as="targetPoint"/>
                    </mxGeometry>
                </mxCell>
                <mxCell id="141" value="Yes" style="text;html=1;align=center;verticalAlign=middle;resizable=0;points=[];autosize=1;strokeColor=none;fillColor=none;" vertex="1" parent="1">
                    <mxGeometry x="547.5" y="2390" width="40" height="30" as="geometry"/>
                </mxCell>
                <mxCell id="145" value="" style="endArrow=none;html=1;exitX=1;exitY=0.5;exitDx=0;exitDy=0;exitPerimeter=0;entryX=0;entryY=0.5;entryDx=0;entryDy=0;entryPerimeter=0;" edge="1" parent="1" source="128" target="140">
                    <mxGeometry width="50" height="50" relative="1" as="geometry">
                        <mxPoint x="790" y="2330" as="sourcePoint"/>
                        <mxPoint x="840" y="2330" as="targetPoint"/>
                    </mxGeometry>
                </mxCell>
                <mxCell id="140" value="No" style="text;html=1;align=center;verticalAlign=middle;resizable=0;points=[];autosize=1;strokeColor=none;fillColor=none;" vertex="1" parent="1">
                    <mxGeometry x="804" y="2315" width="40" height="30" as="geometry"/>
                </mxCell>
                <mxCell id="146" value="" style="endArrow=none;html=1;exitX=1;exitY=0.5;exitDx=0;exitDy=0;exitPerimeter=0;entryX=0;entryY=0.5;entryDx=0;entryDy=0;entryPerimeter=0;" edge="1" parent="1" source="122" target="133">
                    <mxGeometry width="50" height="50" relative="1" as="geometry">
                        <mxPoint x="617.5" y="2330" as="sourcePoint"/>
                        <mxPoint x="670" y="2330" as="targetPoint"/>
                    </mxGeometry>
                </mxCell>
                <mxCell id="133" value="No" style="text;html=1;align=center;verticalAlign=middle;resizable=0;points=[];autosize=1;strokeColor=none;fillColor=none;" vertex="1" parent="1">
                    <mxGeometry x="630" y="2315" width="40" height="30" as="geometry"/>
                </mxCell>
                <mxCell id="148" value="Check all tags" style="strokeWidth=2;html=1;shape=mxgraph.flowchart.decision;whiteSpace=wrap;" vertex="1" parent="1">
                    <mxGeometry x="330" y="2440" width="100" height="100" as="geometry"/>
                </mxCell>
                <mxCell id="150" value="" style="endArrow=classic;html=1;entryX=1;entryY=0.5;entryDx=0;entryDy=0;entryPerimeter=0;startArrow=none;" edge="1" parent="1" source="152" target="148">
                    <mxGeometry width="50" height="50" relative="1" as="geometry">
                        <mxPoint x="450" y="2490" as="sourcePoint"/>
                        <mxPoint x="572.5" y="2625" as="targetPoint"/>
                    </mxGeometry>
                </mxCell>
                <mxCell id="151" value="" style="endArrow=none;html=1;exitX=0;exitY=0.5;exitDx=0;exitDy=0;exitPerimeter=0;entryX=1.036;entryY=0.533;entryDx=0;entryDy=0;entryPerimeter=0;" edge="1" parent="1" target="152" source="127">
                    <mxGeometry width="50" height="50" relative="1" as="geometry">
                        <mxPoint x="500" y="2625" as="sourcePoint"/>
                        <mxPoint x="552.5" y="2625" as="targetPoint"/>
                    </mxGeometry>
                </mxCell>
                <mxCell id="152" value="No" style="text;html=1;align=center;verticalAlign=middle;resizable=0;points=[];autosize=1;strokeColor=none;fillColor=none;" vertex="1" parent="1">
                    <mxGeometry x="454" y="2475" width="40" height="30" as="geometry"/>
                </mxCell>
                <mxCell id="153" value="" style="endArrow=classic;html=1;exitX=0.5;exitY=1;exitDx=0;exitDy=0;exitPerimeter=0;entryX=0.5;entryY=0;entryDx=0;entryDy=0;entryPerimeter=0;startArrow=none;" edge="1" parent="1" source="155">
                    <mxGeometry width="50" height="50" relative="1" as="geometry">
                        <mxPoint x="480" y="2640" as="sourcePoint"/>
                        <mxPoint x="567.5" y="2600" as="targetPoint"/>
                    </mxGeometry>
                </mxCell>
                <mxCell id="154" value="" style="endArrow=none;html=1;exitX=0.5;exitY=1;exitDx=0;exitDy=0;exitPerimeter=0;entryX=0.5;entryY=0;entryDx=0;entryDy=0;entryPerimeter=0;" edge="1" parent="1" target="155">
                    <mxGeometry width="50" height="50" relative="1" as="geometry">
                        <mxPoint x="567.5" y="2540" as="sourcePoint"/>
                        <mxPoint x="567.5" y="2580" as="targetPoint"/>
                    </mxGeometry>
                </mxCell>
                <mxCell id="155" value="Yes" style="text;html=1;align=center;verticalAlign=middle;resizable=0;points=[];autosize=1;strokeColor=none;fillColor=none;" vertex="1" parent="1">
                    <mxGeometry x="547.5" y="2550" width="40" height="30" as="geometry"/>
                </mxCell>
                <mxCell id="158" value="Display Valid Tag" style="verticalLabelPosition=bottom;verticalAlign=top;html=1;shape=offPageConnector;rounded=0;size=0.5;" vertex="1" parent="1">
                    <mxGeometry x="537.5" y="2600" width="60" height="60" as="geometry"/>
                </mxCell>
                <mxCell id="159" value="Display Dog" style="verticalLabelPosition=bottom;verticalAlign=top;html=1;shape=offPageConnector;rounded=0;size=0.5;" vertex="1" parent="1">
                    <mxGeometry x="710" y="2430" width="60" height="60" as="geometry"/>
                </mxCell>
                <mxCell id="160" value="Display Invalid Scan" style="verticalLabelPosition=bottom;verticalAlign=top;html=1;shape=offPageConnector;rounded=0;size=0.5;" vertex="1" parent="1">
                    <mxGeometry x="860" y="2300" width="60" height="60" as="geometry"/>
                </mxCell>
                <mxCell id="163" value="Display Invalid Scan" style="verticalLabelPosition=bottom;verticalAlign=top;html=1;shape=offPageConnector;rounded=0;size=0.5;" vertex="1" parent="1">
                    <mxGeometry x="190" y="2460" width="60" height="60" as="geometry"/>
                </mxCell>
                <mxCell id="164" value="" style="endArrow=classic;html=1;exitX=0;exitY=0.5;exitDx=0;exitDy=0;exitPerimeter=0;entryX=1;entryY=0.5;entryDx=0;entryDy=0;startArrow=none;" edge="1" parent="1" source="162" target="163">
                    <mxGeometry width="50" height="50" relative="1" as="geometry">
                        <mxPoint x="230" y="2550" as="sourcePoint"/>
                        <mxPoint x="280" y="2500" as="targetPoint"/>
                    </mxGeometry>
                </mxCell>
                <mxCell id="165" value="" style="endArrow=none;html=1;exitX=0;exitY=0.5;exitDx=0;exitDy=0;exitPerimeter=0;entryX=1;entryY=0.5;entryDx=0;entryDy=0;" edge="1" parent="1" source="148" target="162">
                    <mxGeometry width="50" height="50" relative="1" as="geometry">
                        <mxPoint x="329.9999999999999" y="2490.0000000000005" as="sourcePoint"/>
                        <mxPoint x="249.9999999999999" y="2489.9999999999995" as="targetPoint"/>
                    </mxGeometry>
                </mxCell>
                <mxCell id="162" value="No" style="text;html=1;align=center;verticalAlign=middle;resizable=0;points=[];autosize=1;strokeColor=none;fillColor=none;" vertex="1" parent="1">
                    <mxGeometry x="270" y="2475" width="40" height="30" as="geometry"/>
                </mxCell>
                <mxCell id="166" value="Is Status UNUSED?" style="strokeWidth=2;html=1;shape=mxgraph.flowchart.decision;whiteSpace=wrap;" vertex="1" parent="1">
                    <mxGeometry x="330" y="2600" width="100" height="100" as="geometry"/>
                </mxCell>
                <mxCell id="167" value="" style="endArrow=classic;html=1;exitX=0.5;exitY=1;exitDx=0;exitDy=0;exitPerimeter=0;entryX=0.5;entryY=0;entryDx=0;entryDy=0;entryPerimeter=0;startArrow=none;" edge="1" parent="1" source="168" target="166">
                    <mxGeometry width="50" height="50" relative="1" as="geometry">
                        <mxPoint x="470" y="2620" as="sourcePoint"/>
                        <mxPoint x="520" y="2570" as="targetPoint"/>
                    </mxGeometry>
                </mxCell>
                <mxCell id="169" value="" style="endArrow=none;html=1;exitX=0.5;exitY=1;exitDx=0;exitDy=0;exitPerimeter=0;entryX=0.5;entryY=0;entryDx=0;entryDy=0;entryPerimeter=0;" edge="1" parent="1" source="148" target="168">
                    <mxGeometry width="50" height="50" relative="1" as="geometry">
                        <mxPoint x="379.9999999999999" y="2540.0000000000005" as="sourcePoint"/>
                        <mxPoint x="379.9999999999999" y="2599.9999999999995" as="targetPoint"/>
                    </mxGeometry>
                </mxCell>
                <mxCell id="168" value="Yes" style="text;html=1;align=center;verticalAlign=middle;resizable=0;points=[];autosize=1;strokeColor=none;fillColor=none;" vertex="1" parent="1">
                    <mxGeometry x="360" y="2551" width="40" height="30" as="geometry"/>
                </mxCell>
                <mxCell id="170" value="Display New Animal Prompt" style="verticalLabelPosition=bottom;verticalAlign=top;html=1;shape=offPageConnector;rounded=0;size=0.5;" vertex="1" parent="1">
                    <mxGeometry x="190" y="2620" width="60" height="60" as="geometry"/>
                </mxCell>
                <mxCell id="171" value="" style="endArrow=classic;html=1;exitX=0;exitY=0.5;exitDx=0;exitDy=0;exitPerimeter=0;entryX=1;entryY=0.5;entryDx=0;entryDy=0;startArrow=none;" edge="1" parent="1" source="172" target="170">
                    <mxGeometry width="50" height="50" relative="1" as="geometry">
                        <mxPoint x="320" y="2610" as="sourcePoint"/>
                        <mxPoint x="370" y="2560" as="targetPoint"/>
                    </mxGeometry>
                </mxCell>
                <mxCell id="173" value="" style="endArrow=none;html=1;exitX=0;exitY=0.5;exitDx=0;exitDy=0;exitPerimeter=0;entryX=1;entryY=0.5;entryDx=0;entryDy=0;" edge="1" parent="1" source="166" target="172">
                    <mxGeometry width="50" height="50" relative="1" as="geometry">
                        <mxPoint x="329.9999999999999" y="2649.9999999999995" as="sourcePoint"/>
                        <mxPoint x="249.9999999999999" y="2649.9999999999995" as="targetPoint"/>
                    </mxGeometry>
                </mxCell>
                <mxCell id="172" value="Yes" style="text;html=1;align=center;verticalAlign=middle;resizable=0;points=[];autosize=1;strokeColor=none;fillColor=none;" vertex="1" parent="1">
                    <mxGeometry x="272" y="2635" width="40" height="30" as="geometry"/>
                </mxCell>
                <mxCell id="176" value="" style="endArrow=classic;html=1;exitX=0.5;exitY=1;exitDx=0;exitDy=0;exitPerimeter=0;entryX=0.5;entryY=0;entryDx=0;entryDy=0;startArrow=none;" edge="1" parent="1" source="177">
                    <mxGeometry width="50" height="50" relative="1" as="geometry">
                        <mxPoint x="400" y="2715" as="sourcePoint"/>
                        <mxPoint x="379.9999999999999" y="2769.9999999999995" as="targetPoint"/>
                    </mxGeometry>
                </mxCell>
                <mxCell id="178" value="" style="endArrow=none;html=1;exitX=0.5;exitY=1;exitDx=0;exitDy=0;exitPerimeter=0;entryX=0.5;entryY=0;entryDx=0;entryDy=0;" edge="1" parent="1" source="166" target="177">
                    <mxGeometry width="50" height="50" relative="1" as="geometry">
                        <mxPoint x="379.9999999999999" y="2699.9999999999995" as="sourcePoint"/>
                        <mxPoint x="379.9999999999999" y="2769.9999999999995" as="targetPoint"/>
                    </mxGeometry>
                </mxCell>
                <mxCell id="177" value="No" style="text;html=1;align=center;verticalAlign=middle;resizable=0;points=[];autosize=1;strokeColor=none;fillColor=none;" vertex="1" parent="1">
                    <mxGeometry x="360" y="2720" width="40" height="30" as="geometry"/>
                </mxCell>
                <mxCell id="179" value="Display Inactive Status" style="verticalLabelPosition=bottom;verticalAlign=top;html=1;shape=offPageConnector;rounded=0;size=0.5;" vertex="1" parent="1">
                    <mxGeometry x="350" y="2770" width="60" height="60" as="geometry"/>
                </mxCell>
                <mxCell id="180" value="Add to list" style="strokeWidth=2;html=1;shape=mxgraph.flowchart.terminator;whiteSpace=wrap;" vertex="1" parent="1">
                    <mxGeometry x="517.5" y="2720" width="100" height="60" as="geometry"/>
                </mxCell>
                <mxCell id="181" value="Add to new tags list" style="strokeWidth=2;html=1;shape=mxgraph.flowchart.terminator;whiteSpace=wrap;" vertex="1" parent="1">
                    <mxGeometry x="170" y="2750" width="100" height="60" as="geometry"/>
                </mxCell>
                <mxCell id="184" value="" style="endArrow=classic;html=1;entryX=0.5;entryY=0;entryDx=0;entryDy=0;entryPerimeter=0;dashed=1;" edge="1" parent="1" target="181">
                    <mxGeometry width="50" height="50" relative="1" as="geometry">
                        <mxPoint x="220" y="2710" as="sourcePoint"/>
                        <mxPoint x="310" y="2610" as="targetPoint"/>
                    </mxGeometry>
                </mxCell>
                <mxCell id="185" value="" style="endArrow=classic;html=1;entryX=0.5;entryY=0;entryDx=0;entryDy=0;entryPerimeter=0;" edge="1" parent="1" target="180">
                    <mxGeometry width="50" height="50" relative="1" as="geometry">
                        <mxPoint x="568" y="2690" as="sourcePoint"/>
                        <mxPoint x="310" y="2610" as="targetPoint"/>
                    </mxGeometry>
                </mxCell>
                <mxCell id="186" value="Scans" style="swimlane;childLayout=stackLayout;resizeParent=1;resizeParentMax=0;startSize=20;html=1;" vertex="1" parent="1">
                    <mxGeometry x="20" y="2910" width="480" height="370" as="geometry"/>
                </mxCell>
                <mxCell id="187" value="Group" style="swimlane;startSize=20;html=1;" vertex="1" parent="186">
                    <mxGeometry y="20" width="120" height="350" as="geometry"/>
                </mxCell>
                <mxCell id="194" value="Valid scan added to list.&lt;br&gt;Default mode.&lt;br&gt;Group mode with defaut group &quot;None&quot;&lt;br&gt;User selectable group.&lt;br&gt;Groups have user defined names.&lt;br&gt;Ability to have multiple groups active at once to allow draft, but default group same as previous scan.&lt;br&gt;Limit concurrent groups? Be able to select a subset of all groups and dropdown available on scan screen&lt;br&gt;&amp;nbsp;&amp;nbsp;" style="text;strokeColor=none;fillColor=none;align=left;verticalAlign=top;spacingLeft=4;spacingRight=4;overflow=hidden;rotatable=0;points=[[0,0.5],[1,0.5]];portConstraint=eastwest;whiteSpace=wrap;html=1;" vertex="1" parent="187">
                    <mxGeometry y="20" width="120" height="440" as="geometry"/>
                </mxCell>
                <mxCell id="188" value="Treat" style="swimlane;startSize=20;html=1;" vertex="1" parent="186">
                    <mxGeometry x="120" y="20" width="120" height="350" as="geometry"/>
                </mxCell>
                <mxCell id="195" value="Valid scan added to list.&lt;br&gt;Mode to serve as treatment record.&lt;br&gt;Meet LPA treatment reporting requirement.&lt;br&gt;Treatment to have a set screen.&lt;br&gt;Treatment ddefaults to same as previous.&lt;br&gt;Option to change treatment.&lt;br&gt;Able to add treatment or switch modes while in another mode to allow for&amp;nbsp;&lt;br&gt;&amp;nbsp;&amp;nbsp;" style="text;strokeColor=none;fillColor=none;align=left;verticalAlign=top;spacingLeft=4;spacingRight=4;overflow=hidden;rotatable=0;points=[[0,0.5],[1,0.5]];portConstraint=eastwest;whiteSpace=wrap;html=1;" vertex="1" parent="188">
                    <mxGeometry y="20" width="120" height="440" as="geometry"/>
                </mxCell>
                <mxCell id="189" value="Trait" style="swimlane;startSize=20;html=1;" vertex="1" parent="186">
                    <mxGeometry x="240" y="20" width="120" height="350" as="geometry"/>
                </mxCell>
                <mxCell id="196" value="Mode to allow traits to be added.&amp;nbsp; Intended for traits that may change.&lt;br&gt;Including&amp;nbsp;&lt;br&gt;&lt;ol&gt;&lt;li&gt;Weight&lt;/li&gt;&lt;li&gt;Condition score&lt;/li&gt;&lt;li&gt;Wet/dry&lt;/li&gt;&lt;li&gt;Eyes&lt;/li&gt;&lt;li&gt;Feet&lt;/li&gt;&lt;li&gt;Wool&lt;/li&gt;&lt;li&gt;Body&lt;/li&gt;&lt;li&gt;Other&lt;/li&gt;&lt;/ol&gt;&lt;div&gt;Comment field&lt;/div&gt;" style="text;strokeColor=none;fillColor=none;align=left;verticalAlign=top;spacingLeft=4;spacingRight=4;overflow=hidden;rotatable=0;points=[[0,0.5],[1,0.5]];portConstraint=eastwest;whiteSpace=wrap;html=1;" vertex="1" parent="189">
                    <mxGeometry y="20" width="120" height="440" as="geometry"/>
                </mxCell>
                <mxCell id="190" value="Add New" style="swimlane;startSize=20;html=1;" vertex="1" parent="186">
                    <mxGeometry x="360" y="20" width="120" height="350" as="geometry"/>
                </mxCell>
                <mxCell id="199" value="Adding new tags.&amp;nbsp; Aimed at marking but also facilitating animals being bought in.&lt;br&gt;&lt;br&gt;Add non changeable traits:&lt;br&gt;&lt;ol&gt;&lt;li&gt;Gender&lt;/li&gt;&lt;li&gt;Colouring&lt;/li&gt;&lt;li&gt;Distinguishing marks&lt;/li&gt;&lt;/ol&gt;&lt;div&gt;Date of application to be combined with age estimate at time.&lt;/div&gt;" style="text;strokeColor=none;fillColor=none;align=left;verticalAlign=top;spacingLeft=4;spacingRight=4;overflow=hidden;rotatable=0;points=[[0,0.5],[1,0.5]];portConstraint=eastwest;whiteSpace=wrap;html=1;" vertex="1" parent="190">
                    <mxGeometry y="20" width="120" height="440" as="geometry"/>
                </mxCell>
            </root>
        </mxGraphModel>
    </diagram>
</mxfile>